<mxfile host="Electron" modified="2024-12-03T07:19:55.587Z" agent="Mozilla/5.0 (Windows NT 10.0; Win64; x64) AppleWebKit/537.36 (KHTML, like Gecko) draw.io/24.1.0 Chrome/120.0.6099.109 Electron/28.1.0 Safari/537.36" etag="QrEeRui5TYxKOPok1cDA" version="24.1.0" type="device">
  <diagram name="DorisParser-TYPE-CAST" id="Mf6i_UcftwDQyC2FPdi5">
    <mxGraphModel dx="1434" dy="836" grid="1" gridSize="10" guides="1" tooltips="1" connect="1" arrows="1" fold="1" page="1" pageScale="1" pageWidth="827" pageHeight="1169" math="0" shadow="0">
      <root>
        <mxCell id="0" />
        <mxCell id="1" parent="0" />
        <mxCell id="29KBUK14QUhSe_ueKBnT-3" value="" style="edgeStyle=orthogonalEdgeStyle;rounded=0;orthogonalLoop=1;jettySize=auto;html=1;" parent="1" source="29KBUK14QUhSe_ueKBnT-1" target="29KBUK14QUhSe_ueKBnT-2" edge="1">
          <mxGeometry relative="1" as="geometry" />
        </mxCell>
        <mxCell id="29KBUK14QUhSe_ueKBnT-1" value="&lt;font style=&quot;font-size: 24px;&quot;&gt;CharStream&lt;/font&gt;" style="rounded=1;whiteSpace=wrap;html=1;fillColor=#d5e8d4;strokeColor=#82b366;" parent="1" vertex="1">
          <mxGeometry x="250" y="160" width="140" height="60" as="geometry" />
        </mxCell>
        <mxCell id="29KBUK14QUhSe_ueKBnT-5" value="" style="edgeStyle=orthogonalEdgeStyle;rounded=0;orthogonalLoop=1;jettySize=auto;html=1;" parent="1" source="29KBUK14QUhSe_ueKBnT-2" target="29KBUK14QUhSe_ueKBnT-4" edge="1">
          <mxGeometry relative="1" as="geometry" />
        </mxCell>
        <mxCell id="29KBUK14QUhSe_ueKBnT-2" value="&lt;font style=&quot;font-size: 24px;&quot;&gt;DorisLexer&lt;/font&gt;" style="rounded=1;whiteSpace=wrap;html=1;fillColor=#d5e8d4;strokeColor=#82b366;" parent="1" vertex="1">
          <mxGeometry x="460" y="160" width="120" height="60" as="geometry" />
        </mxCell>
        <mxCell id="29KBUK14QUhSe_ueKBnT-7" value="" style="edgeStyle=orthogonalEdgeStyle;rounded=0;orthogonalLoop=1;jettySize=auto;html=1;" parent="1" source="29KBUK14QUhSe_ueKBnT-4" target="29KBUK14QUhSe_ueKBnT-6" edge="1">
          <mxGeometry relative="1" as="geometry" />
        </mxCell>
        <mxCell id="29KBUK14QUhSe_ueKBnT-4" value="&lt;font style=&quot;font-size: 24px;&quot;&gt;CommonTokenStream&lt;/font&gt;" style="rounded=1;whiteSpace=wrap;html=1;fillColor=#d5e8d4;strokeColor=#82b366;" parent="1" vertex="1">
          <mxGeometry x="660" y="160" width="240" height="60" as="geometry" />
        </mxCell>
        <mxCell id="29KBUK14QUhSe_ueKBnT-6" value="&lt;font style=&quot;font-size: 24px;&quot;&gt;DorisParser&lt;/font&gt;" style="rounded=1;whiteSpace=wrap;html=1;fillColor=#d5e8d4;strokeColor=#82b366;" parent="1" vertex="1">
          <mxGeometry x="970" y="160" width="140" height="60" as="geometry" />
        </mxCell>
        <mxCell id="29KBUK14QUhSe_ueKBnT-8" value="&lt;font style=&quot;font-size: 24px;&quot;&gt;DorisParser 解析器的数据类型转换流程&lt;/font&gt;" style="rounded=1;whiteSpace=wrap;html=1;fillColor=#f8cecc;strokeColor=#b85450;" parent="1" vertex="1">
          <mxGeometry x="20" y="10" width="440" height="50" as="geometry" />
        </mxCell>
        <mxCell id="29KBUK14QUhSe_ueKBnT-10" value="" style="edgeStyle=orthogonalEdgeStyle;rounded=0;orthogonalLoop=1;jettySize=auto;html=1;" parent="1" source="29KBUK14QUhSe_ueKBnT-9" target="29KBUK14QUhSe_ueKBnT-1" edge="1">
          <mxGeometry relative="1" as="geometry" />
        </mxCell>
        <mxCell id="29KBUK14QUhSe_ueKBnT-9" value="&lt;font style=&quot;font-size: 24px;&quot;&gt;String&lt;/font&gt;" style="rounded=1;whiteSpace=wrap;html=1;fillColor=#d5e8d4;strokeColor=#82b366;" parent="1" vertex="1">
          <mxGeometry x="90" y="160" width="90" height="60" as="geometry" />
        </mxCell>
      </root>
    </mxGraphModel>
  </diagram>
</mxfile>
